<svg xmlns="http://www.w3.org/2000/svg" viewBox="0 0 194 194"><defs><style>.cls-1{fill:#f2f2f2;}.cls-2{fill:#ccc;stroke-width:3.32px;}.cls-10,.cls-2,.cls-3{stroke:#000;stroke-linecap:round;}.cls-2,.cls-3{stroke-linejoin:round;}.cls-3{fill:#fff;stroke-width:2.5px;}.cls-4{font-size:19.39px;font-family:Roboto-Bold, Roboto;font-weight:700;}.cls-5{letter-spacing:-0.09em;}.cls-6{letter-spacing:-0.01em;}.cls-7{letter-spacing:-0.04em;}.cls-8{letter-spacing:-0.03em;}.cls-9{letter-spacing:0em;}.cls-10{fill:none;stroke-miterlimit:10;stroke-width:3.93px;}</style></defs><title>not-found</title><g id="Layer_2" data-name="Layer 2"><g id="Layer_1-2" data-name="Layer 1"><circle class="cls-1" cx="97" cy="97" r="97"/><path class="cls-2" d="M181,54.28H12.5V160.53H83.77a20.75,20.75,0,0,0,26,0H181Z"/><rect class="cls-3" x="97.17" y="50.13" width="78.85" height="106.25"/><rect class="cls-3" x="18.31" y="50.13" width="78.85" height="106.25" transform="translate(115.48 206.51) rotate(-180)"/><path class="cls-3" d="M22.46,44.32C44,28.55,97.17,50.13,97.17,50.13V156.38s-49-18.26-74.71-5.81Z"/><text class="cls-4" transform="translate(17.91 21.27)"><tspan class="cls-5">P</tspan><tspan class="cls-6" x="10.82" y="0">A</tspan><tspan x="23.67" y="0">GE N</tspan><tspan class="cls-7" x="66.29" y="0">O</tspan><tspan class="cls-8" x="78.88" y="0">T</tspan><tspan class="cls-9" x="90.3" y="0" xml:space="preserve"> FOUND</tspan></text><path class="cls-10" d="M114.56,117.08a30.33,30.33,0,0,1,44.06-1.22"/><ellipse cx="125.23" cy="89.42" rx="2.95" ry="10.58"/><ellipse cx="149.11" cy="89.42" rx="2.95" ry="10.58"/></g></g></svg>